<?xml version="1.0" standalone="no"?>
<svg xmlns:xlink="http://www.w3.org/1999/xlink" id="wave" style="transform:rotate(180deg); transition: 0.3s" viewBox="0 0 1440 490" version="1.1" xmlns="http://www.w3.org/2000/svg"><defs><linearGradient id="sw-gradient-0" x1="0" x2="0" y1="1" y2="0"><stop stop-color="rgba(238, 238, 238, 1)" offset="0%"/><stop stop-color="rgba(73, 89, 154, 1)" offset="100%"/></linearGradient></defs><path style="transform:translate(0, 0px); opacity:1" fill="url(#sw-gradient-0)" d="M0,0L40,0C80,0,160,0,240,73.5C320,147,400,294,480,318.5C560,343,640,245,720,220.5C800,196,880,245,960,285.8C1040,327,1120,359,1200,351.2C1280,343,1360,294,1440,245C1520,196,1600,147,1680,106.2C1760,65,1840,33,1920,40.8C2000,49,2080,98,2160,130.7C2240,163,2320,180,2400,204.2C2480,229,2560,261,2640,269.5C2720,278,2800,261,2880,228.7C2960,196,3040,147,3120,179.7C3200,212,3280,327,3360,383.8C3440,441,3520,441,3600,441C3680,441,3760,441,3840,424.7C3920,408,4000,376,4080,367.5C4160,359,4240,376,4320,351.2C4400,327,4480,261,4560,261.3C4640,261,4720,327,4800,318.5C4880,310,4960,229,5040,236.8C5120,245,5200,343,5280,383.8C5360,425,5440,408,5520,359.3C5600,310,5680,229,5720,187.8L5760,147L5760,490L5720,490C5680,490,5600,490,5520,490C5440,490,5360,490,5280,490C5200,490,5120,490,5040,490C4960,490,4880,490,4800,490C4720,490,4640,490,4560,490C4480,490,4400,490,4320,490C4240,490,4160,490,4080,490C4000,490,3920,490,3840,490C3760,490,3680,490,3600,490C3520,490,3440,490,3360,490C3280,490,3200,490,3120,490C3040,490,2960,490,2880,490C2800,490,2720,490,2640,490C2560,490,2480,490,2400,490C2320,490,2240,490,2160,490C2080,490,2000,490,1920,490C1840,490,1760,490,1680,490C1600,490,1520,490,1440,490C1360,490,1280,490,1200,490C1120,490,1040,490,960,490C880,490,800,490,720,490C640,490,560,490,480,490C400,490,320,490,240,490C160,490,80,490,40,490L0,490Z"/><defs><linearGradient id="sw-gradient-1" x1="0" x2="0" y1="1" y2="0"><stop stop-color="rgba(238, 238, 238, 1)" offset="0%"/><stop stop-color="rgba(73, 89, 154, 0.32)" offset="100%"/></linearGradient></defs><path style="transform:translate(0, 50px); opacity:0.9" fill="url(#sw-gradient-1)" d="M0,343L40,318.5C80,294,160,245,240,261.3C320,278,400,359,480,367.5C560,376,640,310,720,294C800,278,880,310,960,285.8C1040,261,1120,180,1200,155.2C1280,131,1360,163,1440,147C1520,131,1600,65,1680,106.2C1760,147,1840,294,1920,351.2C2000,408,2080,376,2160,334.8C2240,294,2320,245,2400,212.3C2480,180,2560,163,2640,204.2C2720,245,2800,343,2880,392C2960,441,3040,441,3120,367.5C3200,294,3280,147,3360,98C3440,49,3520,98,3600,106.2C3680,114,3760,82,3840,57.2C3920,33,4000,16,4080,8.2C4160,0,4240,0,4320,16.3C4400,33,4480,65,4560,114.3C4640,163,4720,229,4800,277.7C4880,327,4960,359,5040,318.5C5120,278,5200,163,5280,130.7C5360,98,5440,147,5520,187.8C5600,229,5680,261,5720,277.7L5760,294L5760,490L5720,490C5680,490,5600,490,5520,490C5440,490,5360,490,5280,490C5200,490,5120,490,5040,490C4960,490,4880,490,4800,490C4720,490,4640,490,4560,490C4480,490,4400,490,4320,490C4240,490,4160,490,4080,490C4000,490,3920,490,3840,490C3760,490,3680,490,3600,490C3520,490,3440,490,3360,490C3280,490,3200,490,3120,490C3040,490,2960,490,2880,490C2800,490,2720,490,2640,490C2560,490,2480,490,2400,490C2320,490,2240,490,2160,490C2080,490,2000,490,1920,490C1840,490,1760,490,1680,490C1600,490,1520,490,1440,490C1360,490,1280,490,1200,490C1120,490,1040,490,960,490C880,490,800,490,720,490C640,490,560,490,480,490C400,490,320,490,240,490C160,490,80,490,40,490L0,490Z"/></svg>